<svg xmlns="http://www.w3.org/2000/svg" version="1.1" xmlns:xlink="http://www.w3.org/1999/xlink" xmlns:svgjs="http://svgjs.dev/svgjs" width="2000" height="2242" viewBox="0 0 2000 2242"><g transform="matrix(1,0,0,1,-3.115264797507507,0)"><svg viewBox="0 0 321 360" data-background-color="#ffffff" preserveAspectRatio="xMidYMid meet" height="2242" width="2000" xmlns="http://www.w3.org/2000/svg" xmlns:xlink="http://www.w3.org/1999/xlink"><g id="tight-bounds" transform="matrix(1,0,0,1,0.5,0)"><svg viewBox="0 0 320 360" height="360" width="320"><g><svg></svg></g><g><svg viewBox="0 0 320 360" height="360" width="320"><g><path d="M20.961 227.22l3.726 4.658-1.863-6.056c-0.466-2.795-3.726 0.466-1.863 1.398M25.153 224.425c1.397 2.329 2.795 4.658 2.795 6.987 0 3.261 2.795 4.658 5.123 5.589-3.261-3.726-5.124-13.974-7.918-12.576M204.017 26.929c7.918 0 15.371-0.932 23.756 0.931 20.495 5.124 37.729 15.371 49.374 29.811l32.606 52.169c1.397 13.042 4.192 27.482 3.726 43.319 3.261 0 2.795-4.658 6.521-5.59-3.726 9.316-5.59 20.961-6.521 34.469-2.329-7.453 0-18.632 0.466-24.687-3.261 5.124-5.124 1.397-5.124-0.932 0.466-3.726-1.397-3.261-2.795-4.658-5.124-4.658-8.384-9.782-12.11-17.7 2.329-6.055 2.795-14.905-4.658-19.563-2.329-1.397-5.124-3.726-6.521-7.453-1.863-5.124-5.124-11.179-4.193-19.097 0.466-2.329-6.987 5.124-11.179 1.863-18.166-12.576-36.332-27.016-58.224-39.127-11.645 0-20.029-4.192-24.221-9.316-3.726-4.658-0.932-10.713 4.658-11.179 3.261 0 6.987-0.932 9.782 0.932 0.466-1.863 2.329-4.192 4.657-4.192M157.904 16.215l0.932 0.466c4.658 0.932 6.987 7.453 12.11 5.124 0 3.261 0.466 6.521-0.466 8.85-1.397 3.726-5.59 3.726-8.85 3.726-31.208-1.863-49.374 11.179-68.471 22.358-5.124 3.261-10.713 5.59-14.906 9.782-20.029 18.632-41.921 35.866-47.045 70.335l-4.192 38.195c-0.466 4.192-5.124 8.384-4.192 13.508l3.26 22.824c-3.261-3.261-5.124 0.932-4.192 2.795 0.466 1.397 2.329 6.055 5.124 1.863 3.726 6.987 7.453 20.495 12.576 26.55 15.837 18.632 36.332 35.4 53.101 52.169 4.192-0.932 7.453-0.932 8.384-3.727 1.397 2.795-1.397 5.59-3.726 6.056 7.453 4.658 15.837 8.85 27.016 9.781 14.44 0.932 27.948 3.261 40.524 6.522 6.521-1.863 13.042-2.795 20.029-3.261 2.329 0 3.726-3.726 6.521-4.658l0.466-4.658c2.795 4.192 2.329-1.397 0.466-4.192 3.261 2.795 4.192 5.124 5.589 6.987 0-1.397 3.726-6.521 3.727-0.466l0.931-6.055c1.397-0.932 1.863 5.124 3.261 0.931 1.397-4.192 4.192-0.932 6.987-2.329-0.932 1.863-0.466 5.59 2.794 3.261l3.727-3.261c2.329 5.59 6.055 3.261 7.918 2.329 20.495-13.042 40.99-28.413 60.553-43.784l-0.466 6.055 2.329-7.453c2.329 2.329 4.192 0.466 5.124-0.931 2.795-4.658 6.521-9.316 12.577-13.508-7.453 20.029-16.303 35.866-27.482 48.908l-4.658 5.59c0 3.261-0.932 7.453-4.658 7.918-1.863 0.466-5.59-0.932-8.384 1.863-1.397 1.863 3.261 5.59-0.466 2.795-3.261-2.329-6.521 0-10.248 0.932-2.795 0.932 1.863 3.726 2.795 5.589 0.932 1.863 1.863 3.726 1.398 6.056l-5.124-5.59c-6.055 3.261-9.782 9.316-14.906 13.974-2.329 1.863-1.397 5.124-1.397 7.918-3.261 0-6.987-0.932-8.85 0.932-1.397 1.863-0.932 4.658-0.932 7.453-4.658-0.466-5.124-7.453-9.315-6.056-4.192 0.932-8.85 1.397-12.577 3.727 2.795 5.59-4.658 2.329-3.726 3.26-6.987-4.192-13.042-7.453-20.495-4.658-15.837-5.124-35.4-2.795-49.84-0.931 0-2.329 0.466-4.658-0.466-5.124-0.932 2.329-3.726 1.397-3.26 1.397-8.85-6.055-17.7-9.782-27.016-14.905-8.384 0.932-16.303-3.261-18.632-5.59-6.521-6.055-13.974-2.795-20.029-4.192-13.042-3.261-17.7-16.769-19.098-26.084-0.932-4.658-4.658-6.521-6.055-6.056-6.055-19.563-15.371-37.263-22.824-55.429-1.863-4.658-1.397-9.316-1.397-14.44 2.329 0.932 4.658 0.466 4.192-2.794-2.329-15.371-7.918-27.016-13.974-38.195 3.261-15.837 3.726-34.469 11.179-48.443 6.521-12.576 18.632-19.098 27.016-29.811 2.795-3.726 2.795-8.85 5.59-12.11 9.316-9.316 18.632-19.098 28.879-27.482 4.658-3.726 10.247 0 17.234-1.397 2.329-8.384 11.645-15.837 20.495-13.508 3.726 0.932 11.179-8.85 13.508-9.782 3.726-1.397 1.863 3.726 1.863 6.987 8.85-6.987 20.961-10.713 32.14-14.906" fill="#e93434" fill-rule="nonzero" stroke="none" stroke-width="1" stroke-linecap="butt" stroke-linejoin="miter" stroke-miterlimit="10" stroke-dasharray="" stroke-dashoffset="0" font-family="none" font-weight="none" font-size="none" text-anchor="none" style="mix-blend-mode: normal" data-fill-palette-color="tertiary"></path></g><g transform="matrix(1,0,0,1,64,110.38787786259542)"><svg viewBox="0 0 192 139.22424427480917" height="139.22424427480917" width="192"><g><svg viewBox="0 0 192 139.22424427480917" height="139.22424427480917" width="192"><g><svg viewBox="0 0 192 139.22424427480917" height="139.22424427480917" width="192"><g id="textblocktransform"><svg viewBox="0 0 192 139.22424427480917" height="139.22424427480917" width="192" id="textblock"><g><svg viewBox="0 0 192 139.22424427480917" height="139.22424427480917" width="192"><path d="M191.55 29.861C190.648 15.41 188.075 11.392 188.075 11.392 180.177-3.493 170.321-0.285 161.466 1.854 145.832 1.941 130.262 5.12 114.664 6.825 81.926 7.085 48.907 2.808 16.331 13.357 13.271 16.595-3.175 13.993 0.544 31.711 1.519 39.081 5.075 47.26 4.967 54.024 5.455 55.209 6.132 52.492 6.42 54.197 7.431 58.793 9.083 56.625 10.437 59.342 8.551 66.596 9.905 72.637 11.195 78.967 8.921 80.614 6.005 79.834 4.696 85.297 4.561 89.256 3.83 88.505 3.027 88.331 2.44 88.216 1.257 88.649 1.456 89.892 2.133 94.141-0.774 96.598 1.05 100.76-0.205 105.268 1.916 109.17 1.627 114.055 1.591 115.038 1.79 115.876 2.106 116.107 3.505 117.35 1.465 119.778 1.682 122.408 16.033 140.385 31.604 127.957 46.308 136.223 50.126 130.443 47.256 138.276 48.781 137.062 49.972 135.645 50.839 141.513 52.184 138.189 52.392 137.235 52.076 134.981 52.816 135.414 53.204 135.645 53.547 135.588 53.601 134.258 53.682 132.264 52.969 133.507 52.78 132.466 54.829 127.206 54.323 139.721 56.246 139.2 56.156 137.669 55.596 135.472 56.742 135.761 57.88 133.564 57.916 131.744 58.927 136.686 58.963 137.755 59.143 138.507 59.432 139.027 62.591 133.651 65.732 140.935 69.045 138.507 71.076 135.848 73.026 139.952 75.084 138.94 75.806 138.131 76.537 136.686 77.232 139.114 85.744 139.634 94.815 137.466 102.885 139.2 124.449 135.963 147.493 140.53 170.23 136.252 175.592 134.605 181.161 132.264 186.387 130.385 186.387 130.385 190.621 125.24 190.621 102.118S191.523 81.886 191.659 63.475C191.794 45.064 192.426 44.312 191.523 29.861Z" opacity="1" fill="#e93434" data-fill-palette-color="tertiary"></path><g transform="matrix(1,0,0,1,27.072000000000003,19.1)"><svg width="137.856" viewBox="-2.3 -33.2 45.849999999999994 33.6" height="101.02424427480916" data-palette-color="#ffffff"><path d="M16.25-30.05L16.25-30.05Q16.25-26.9 20.15-14.75L20.15-14.75 21.75-9.75 22.1-9.85Q22.15-10.9 28.3-30.45L28.3-30.45Q28.3-30.95 27.75-31.43 27.2-31.9 26.6-32.05L26.6-32.05 26.75-32.75Q29.25-32.55 33.6-32.55 37.95-32.55 40.55-32.95L40.55-32.95 40.8-31.7Q38.4-30.95 35.95-30.65L35.95-30.65Q35.7-29.45 35.7-26.38 35.7-23.3 36.52-14.05 37.35-4.8 38.05-1.75L38.05-1.75Q40.7-1.5 43.55-0.8L43.55-0.8 43.4 0.4Q39.7 0 35.4 0 31.1 0 28.45 0.4L28.45 0.4 28.25-0.85Q30.5-1.55 33.05-1.9L33.05-1.9Q33.05-6.65 32.5-15 31.95-23.35 31.1-29.3L31.1-29.3 30.95-29.35Q23.8-9.55 23.45-5.25L23.45-5.25Q20.2-3.3 18.6-1.45L18.6-1.45 18-1.85Q18.1-2.95 18.1-3.5L18.1-3.5Q18.1-9.35 11.55-29.35L11.55-29.35 11.35-29.3 9.8-18.35Q8.8-11.2 8.8-5.45L8.8-5.45Q8.8-3.6 9.22-2.4 9.65-1.2 10.95-0.5L10.95-0.5 10.75 0.2Q9.2 0 5.48 0 1.75 0-1.2 0.4L-1.2 0.4-1.4-0.85Q0.85-1.55 3.4-1.9L3.4-1.9 9-29.8Q3.1-29.8 1.45-28.2L1.45-28.2Q1.1-27.5 1.1-26 1.1-24.5 1.6-23.95L1.6-23.95 1.55-23.6Q0.3-22.85-0.95-21.5L-0.95-21.5Q-1.55-21.55-1.93-22-2.3-22.45-2.3-23.05L-2.3-23.05Q-2.3-25.5 0.65-28.9 3.6-32.3 6.15-33.2L6.15-33.2Q6.55-33.2 9.75-32.88 12.95-32.55 14.73-32.55 16.5-32.55 18.1-32.85L18.1-32.85 18.3-31.6Q16.25-30.8 16.25-30.05Z" opacity="1" transform="matrix(1,0,0,1,0,0)" fill="#ffffff" class="wordmark-text-0" data-fill-palette-color="quaternary" id="text-0"></path></svg></g></svg></g></svg></g></svg></g><g></g></svg></g></svg></g></svg></g><defs></defs></svg><rect width="320" height="360" fill="none" stroke="none" visibility="hidden"></rect></g></svg></g></svg>